<svg xmlns="http://www.w3.org/2000/svg" viewBox="0 0 1024 1024" width="1024" height="1024"><defs><radialGradient id="g" cx="50%" cy="50%" r="50%"><stop offset="0%" stop-color="#e0464a" stop-opacity="0.34"/><stop offset="62%" stop-color="#e0464a" stop-opacity="0"/></radialGradient></defs><rect width="1024" height="1024" rx="208" fill="#16171a"/><rect width="1024" height="1024" rx="208" fill="url(#g)"/><g transform="translate(-189.63 -189.63) scale(1.3704)"><g transform="translate(242 242) scale(2.1094)"><path d="M96,40l33.52,88H56Zm104,88H129.52L160,208Z"  fill="#e0464a" opacity="0.45"/><path fill="#e4e3dc" d="M240,128a8,8,0,0,1-8,8H204.94l-37.78,75.58A8,8,0,0,1,160,216h-.4a8,8,0,0,1-7.08-5.14L95.35,60.76,63.28,131.31A8,8,0,0,1,56,136H24a8,8,0,0,1,0-16H50.85L88.72,36.69a8,8,0,0,1,14.76.46l57.51,151,31.85-63.71A8,8,0,0,1,200,120h32A8,8,0,0,1,240,128Z"/></g></g></svg>