<?xml version="1.0" encoding="UTF-8" standalone="no"?>
<!-- Created with Inkscape (http://www.inkscape.org/) -->

<svg
   width="293.3472mm"
   height="198.03455mm"
   viewBox="0 0 293.3472 198.03455"
   version="1.1"
   id="svg1"
   xml:space="preserve"
   xmlns:inkscape="http://www.inkscape.org/namespaces/inkscape"
   xmlns:sodipodi="http://sodipodi.sourceforge.net/DTD/sodipodi-0.dtd"
   xmlns="http://www.w3.org/2000/svg"
   xmlns:svg="http://www.w3.org/2000/svg"><sodipodi:namedview
     id="namedview1"
     pagecolor="#ffffff"
     bordercolor="#000000"
     borderopacity="0.25"
     inkscape:showpageshadow="2"
     inkscape:pageopacity="0.0"
     inkscape:pagecheckerboard="0"
     inkscape:deskcolor="#d1d1d1"
     inkscape:document-units="mm"><inkscape:page
       x="0"
       y="-1.9337245e-20"
       width="293.3472"
       height="198.03456"
       id="page2"
       margin="0"
       bleed="0" /></sodipodi:namedview><defs
     id="defs1" /><g
     inkscape:label="Layer 1"
     inkscape:groupmode="layer"
     id="layer1"
     transform="translate(37.476622,-36.719786)"><path
       style="fill:#ffffff;fill-opacity:1"
       d="M -3.8841963,233.16653 C 12.169624,204.11149 37.549064,174.93056 58.996444,160.86722 c 2.15625,-1.41388 8.4827,-4.82673 8.94738,-4.82673 0.097,0 -0.40709,0.74414 -1.12033,1.65364 -7.2971,9.30513 -15.1437,22.36173 -16.61732,27.65091 -0.65358,2.34585 -0.44401,4.83156 0.56357,6.68461 1.9532,3.59214 8.19366,6.48474 16.90536,7.83606 4.34314,0.67368 16.909737,0.67583 21.828127,0.004 15.432159,-2.10881 28.926829,-6.43956 49.344789,-15.83588 20.56524,-9.46409 33.09814,-17.0088 45.64714,-27.4792 3.79412,-3.16567 10.07019,-9.31294 12.27517,-12.02325 1.50457,-1.84937 1.50573,-1.85221 0.79864,-1.93885 -0.68446,-0.0839 -3.69738,0.19884 -13.74178,1.28941 -2.61938,0.28439 -6.96516,0.75146 -9.65729,1.03792 -12.35138,1.31425 -36.52267,4.51365 -37.61749,4.97918 -0.60222,0.25608 -8.76566,11.99523 -15.95446,22.94276 -5.53259,8.42536 -7.43728,11.34983 -8.22804,12.63338 -0.42568,0.69096 -0.84975,1.25651 -0.94236,1.25677 -0.0926,2.6e-4 -0.247,-0.52368 -0.34307,-1.1643 -0.0961,-0.64063 -0.76894,-3.76602 -1.49527,-6.94532 -0.72633,-3.17929 -1.79499,-7.92365 -2.37479,-10.54303 -0.5798,-2.61937 -1.46496,-6.60797 -1.96702,-8.86354 -1.25243,-5.62673 -2.69896,-12.56294 -4.77281,-22.88592 -0.964679,-4.80189 -1.803809,-8.78056 -1.864739,-8.84149 -0.15325,-0.15325 0.0367,-0.44699 -3.40758,5.26908 -1.70986,2.83765 -4.78145,7.85294 -6.82575,11.14509 l -3.71689,5.98571 -3.46518,0.17409 c -6.07249,0.30508 -20.342897,0.93227 -30.584967,1.34422 -12.0168,0.48333 -30.83348,1.3418 -37.70312,1.72013 -2.7649,0.15227 -7.4083403,0.39343 -10.3187503,0.53592 -2.91042,0.14249 -7.07761,0.38145 -9.26042,0.53102 -2.18281,0.14956 -9.2074997,0.62744 -15.6104197,1.06194 -11.15776,0.75716 -12.77552,0.89358 -14.55208,1.22715 -0.43656,0.082 -0.71702,0.0683 -0.62323,-0.0303 0.19036,-0.20024 6.53504,-1.87293 11.60344,-3.05909 1.81901,-0.4257 4.61698,-1.08055 6.21771,-1.45522 5.91173,-1.38371 16.2111797,-3.53763 23.4156197,-4.89688 2.40109,-0.45302 5.85391,-1.10905 7.6729203,-1.45786 1.81901,-0.34881 9.26041,-1.65837 16.53645,-2.91012 7.27605,-1.25176 15.90808,-2.79744 19.1823,-3.43484 3.27421,-0.63741 10.2989,-2.00171 15.61041,-3.03178 5.31151,-1.03007 9.90781,-1.97893 10.214,-2.10857 0.71828,-0.30413 7.487207,-7.72691 15.216557,-16.68641 1.33565,-1.54822 5.99857,-7.15927 11.983199,-14.41979 1.19949,-1.45521 3.04816,-3.747165 4.10817,-5.093233 1.68112,-2.134795 2.39891,-2.824174 2.39891,-2.303949 0,0.07889 0.17407,1.001629 0.38681,2.05052 0.7706,3.799182 2.51251,13.376492 3.16202,17.385202 2.94217,18.15896 3.88027,24.74944 4.78294,33.60209 0.24483,2.40109 0.52417,4.75711 0.62075,5.23559 l 0.1756,0.86997 0.81706,-1.39914 c 0.44939,-0.76952 2.87603,-4.8643 5.39254,-9.09951 l 4.57547,-7.70038 16.70017,-0.20008 c 9.1851,-0.11005 26.32441,-0.27675 38.08737,-0.37045 20.57482,-0.1639 21.4011,-0.1894 21.75353,-0.67137 1.39192,-1.90356 3.03108,-8.04766 3.02707,-11.34641 -0.004,-3.54073 -1.27217,-8.29124 -3.17863,-11.90981 l -1.07275,-2.03614 0.94326,-0.8282 c 0.5188,-0.45551 1.22072,-1.04644 1.55982,-1.31318 l 0.61654,-0.48497 1.32796,1.64318 c 4.25573,5.26598 6.89271,10.5488 7.98988,16.00667 0.45088,2.24288 0.61596,6.37571 0.34044,8.52298 -0.14004,1.0914 -0.23498,2.00935 -0.21097,2.03988 0.0379,0.0482 36.72033,0.5993 40.21544,0.60415 2.24716,0.003 1.1694,0.25962 -2.7819,0.66209 -2.09585,0.21347 -6.43001,0.68621 -9.63147,1.05053 -3.20145,0.36431 -6.89239,0.77675 -8.20208,0.91653 -1.30969,0.13977 -4.88156,0.54923 -7.9375,0.90992 -3.05594,0.36068 -7.10406,0.79666 -8.99583,0.96883 -1.89177,0.17218 -3.52107,0.36204 -3.62067,0.42191 -0.0996,0.0599 -0.3641,0.73839 -0.58778,1.50783 -0.22368,0.76944 -0.94178,2.63171 -1.59578,4.13837 -4.82694,11.12022 -14.9637,23.06866 -28.98848,34.16943 -4.31446,3.41495 -5.61467,4.35625 -11.01922,7.97755 -12.65515,8.47952 -25.61655,15.52598 -39.93975,21.71322 -5.8747,2.53771 -16.71583,6.19701 -22.93507,7.74146 -1.56938,0.38974 -2.80281,0.75922 -2.74094,0.82109 0.0619,0.0619 1.3927,-0.13458 2.95741,-0.43654 1.56471,-0.30196 5.60092,-0.95659 8.96935,-1.45474 15.18122,-2.24514 26.95978,-5.50716 40.69577,-11.27054 18.42222,-7.72964 32.50032,-15.68651 45.77443,-25.8715 2.29195,-1.75858 4.16719,-3.12421 4.16719,-3.03474 0,0.33733 -5.11381,6.46617 -8.24866,9.88592 -14.02009,15.29425 -27.10032,24.74492 -46.44373,33.55629 -14.22551,6.48006 -29.84954,10.8047 -46.64303,12.91052 -5.82673,0.73064 -6.2368,0.74647 -19.314579,0.7456 -14.233747,-9.5e-4 -16.213127,-0.11499 -27.913547,-1.6082 -7.95041,-1.01463 -27.73839,-4.49856 -29.10416,-5.12416 -0.35681,-0.16344 0.52135,-0.24822 2.69603,-0.2603 1.77386,-0.01 5.40526,-0.20018 8.06979,-0.42295 13.96533,-1.16761 23.36969,-3.14803 35.139387,-7.39984 2.25557,-0.81483 6.00604,-1.99818 8.33437,-2.62968 14.8674,-4.03237 25.572089,-7.41698 38.485069,-12.16822 3.59633,-1.32325 5.04098,-2.15896 1.85405,-1.07255 -4.60369,1.56938 -15.32663,3.87713 -24.46857,5.26605 -2.471409,0.37547 -5.207839,0.79977 -6.080959,0.94288 -2.76635,0.45342 -7.25125,1.03237 -12.30313,1.58817 -2.69214,0.29619 -6.50214,0.71981 -8.466667,0.94137 -8.55155,0.96444 -13.97068,1.22858 -29.63333,1.44437 -9.59026,0.13213 -16.62369,0.33767 -17.54489,0.51273 -8.68452,1.65036 -18.0518903,7.48644 -28.8597903,17.98027 l -2.61614,2.54012 z m -1.73504,-91.71739 c 0.80537,-6.17797 2.89465,-12.17275 6.89297,-19.77806 4.26877,-8.11973 10.1119403,-15.87369 17.5707303,-23.316568 4.17843,-4.169518 6.55341,-6.220609 11.66341,-10.072821 17.13406,-12.916624 36.21776,-21.841874 59.259947,-27.715254 5.62784,-1.43452 13.843039,-3.123829 18.133289,-3.728786 4.57316,-0.644851 13.90099,-1.611094 18.37921,-1.90385 10.35257,-0.676784 37.53183,-0.174085 42.92567,0.793939 1.01771,0.182647 0.8828,0.221592 -1.38609,0.40013 -5.73463,0.451254 -15.84648,1.858329 -23.28333,3.239903 -20.29714,3.770677 -42.59228,11.294772 -63.235419,21.340489 -12.638047,6.150143 -25.509647,14.505837 -35.153797,22.820358 -5.7272,4.93759 -13.1751,12.78202 -17.81477,18.76321 -2.04133,2.63157 -7.49818,10.81998 -8.79061,13.19097 l -1.20422,2.20918 -2.84799,0.58599 c -5.40118,1.11131 -20.3116803,4.29415 -20.8020303,4.44046 -0.45109,0.13459 -0.47636,0.0301 -0.30697,-1.26929 z M 167.23831,124.62122 c 4.70467,-5.70721 9.9628,-12.85875 12.9851,-17.66094 3.05061,-4.84717 6.05586,-11.733476 5.38076,-12.329612 -0.55915,-0.493742 -7.14524,-1.744743 -13.13893,-2.495685 -7.48873,-0.938254 -21.5792,-0.988029 -31.23597,-0.110342 -14.90794,1.354956 -21.31756,2.112529 -30.3503,3.587193 -1.41298,0.23068 -2.72267,0.36539 -2.91042,0.299356 -0.3407,-0.119828 0.75137,-0.655078 2.80591,-1.375252 0.59734,-0.209381 2.69341,-0.961096 4.65794,-1.670477 5.52239,-1.994105 14.35162,-4.734281 25.7443,-7.989816 17.01442,-4.861986 27.27692,-8.479977 40.53382,-14.289984 6.26198,-2.744392 17.44857,-8.264349 22.225,-10.966799 11.54,-6.529189 22.66067,-14.523678 30.36094,-21.826033 0.69122,-0.655504 1.25677,-1.135409 1.25677,-1.066455 0,0.246129 -2.35249,5.473943 -4.10177,9.115153 -0.97874,2.037292 -2.16821,4.537604 -2.64328,5.55625 -1.61428,3.461402 -5.93596,12.156385 -8.02187,16.139583 -8.59722,16.416999 -15.32818,26.275937 -23.58596,34.54673 -6.56779,6.57815 -12.47136,11.33713 -25.98738,20.94894 -3.00875,2.13965 -5.54586,4.01227 -5.63801,4.16137 -0.0922,0.1491 -0.28314,0.27109 -0.42442,0.27109 -0.14128,0 0.79821,-1.27992 2.08777,-2.84427 z"
       id="path1"
       sodipodi:nodetypes="csscssscsssssssssssssssssscssssssscsssssssssssscssscsscssscscsscsssscsssssssssssssssssssssssscssssssssssssccsssssssssssssscsssssssssssssssssssssscss"
       inkscape:export-filename="axipulse-black.svg"
       inkscape:export-xdpi="96"
       inkscape:export-ydpi="96" /></g></svg>
